@startuml
hide members

interface Army
interface Character
interface Unit

Army <|-- AbstractArmy
Army <|-- ArmyWithUnits
Army --> "0..*" Character : VIPs
Army --> "0..1" Character : leader
ArmyWithUnits --> Unit : has

Battle --> "2" Army
Battle -up-> Terrain
Battle -up-> Weather
Battle -up-> Light
@enduml